<?xml version="1.0"?>
<svg xmlns="http://www.w3.org/2000/svg" viewBox="0 0 32 32">
    <path d="M 25 2 C 24.616 2.082 24.26525 2.166 23.90625 2.25 C 23.86525 2.26 23.8135 2.30775 23.8125 2.34375 C 23.8045 2.70075 23.8125 3.0525 23.8125 3.4375 C 24.2125 3.3585 24.5715 3.29475 24.9375 3.21875 C 24.9665 3.21275 25 3.151 25 3.125 C 25.005 2.748 25 2.386 25 2 z M 23.5 2.3125 C 23.229 2.3645 22.97875 2.41775 22.71875 2.46875 C 22.30475 2.55075 22.28125 2.56375 22.28125 2.96875 L 22.28125 3.71875 C 22.70225 3.64375 23.106 3.57 23.5 3.5 L 23.5 2.3125 z M 22 2.625 C 21.602 2.691 21.21875 2.7455 20.84375 2.8125 C 20.81875 2.8165 20.78125 2.846 20.78125 2.875 C 20.77725 3.221 20.78125 3.5715 20.78125 3.9375 C 21.16625 3.8785 21.522 3.84125 21.875 3.78125 C 21.918 3.77525 21.999 3.7205 22 3.6875 C 22.008 3.3365 22 2.996 22 2.625 z M 18.96875 3.09375 C 18.55975 3.14475 18.142 3.201 17.75 3.25 L 17.75 4.34375 C 18.158 4.29775 18.57275 4.2325 18.96875 4.1875 L 18.96875 3.09375 z M 26.5 3.15625 C 26.126 3.23625 25.74 3.32425 25.375 3.40625 C 25.346 3.41325 25.3125 3.44375 25.3125 3.46875 C 25.3075 3.80275 25.3115 4.12275 25.3125 4.46875 C 25.7195 4.38775 26.109 4.328 26.5 4.25 C 26.499 3.891 26.5 3.53425 26.5 3.15625 z M 17.46875 3.28125 C 17.04375 3.32425 16.648 3.36525 16.25 3.40625 L 16.25 4.46875 C 16.639 4.43375 16.997 4.414 17.375 4.375 C 17.403 4.372 17.46875 4.3375 17.46875 4.3125 C 17.47375 3.9745 17.46875 3.63325 17.46875 3.28125 z M 15.90625 3.4375 C 15.49125 3.4705 15.11475 3.49925 14.71875 3.53125 L 14.71875 4.59375 C 15.12575 4.56475 15.50225 4.529 15.90625 4.5 L 15.90625 3.4375 z M 14.40625 3.53125 C 14.00125 3.55225 13.5965 3.57275 13.1875 3.59375 L 13.1875 4.6875 C 13.6015 4.6645 14.01025 4.647 14.40625 4.625 L 14.40625 3.53125 z M 8.59375 3.6875 L 8.59375 4.71875 L 9.78125 4.71875 L 9.78125 3.6875 L 8.59375 3.6875 z M 10.125 3.6875 L 10.125 4.71875 L 11.34375 4.71875 L 11.34375 3.6875 L 10.125 3.6875 z M 23.5 3.75 C 23.127 3.815 22.76925 3.90075 22.40625 3.96875 C 22.36825 3.97575 22.28125 4.00225 22.28125 4.03125 C 22.27425 4.34325 22.28125 4.669 22.28125 5 C 22.69825 4.934 23.103 4.8755 23.5 4.8125 L 23.5 3.75 z M 22 4.03125 C 20.585 4.21825 19.17 4.40575 17.75 4.59375 L 17.75 7.03125 C 16.861 7.06925 15.98275 7.087 15.09375 7.125 L 15.09375 6.15625 C 15.47575 6.13525 15.84975 6.11275 16.21875 6.09375 L 16.21875 4.75 C 14.68775 4.83 13.157 4.88875 11.625 4.96875 L 11.625 7.3125 L 8.59375 7.3125 L 8.59375 8.5 L 9.78125 8.5 L 9.78125 9.4375 L 8.59375 9.4375 L 8.59375 10.59375 L 10.125 10.59375 L 10.125 14.375 L 11.28125 14.375 L 11.28125 15.28125 L 10.125 15.28125 L 10.125 16.71875 L 11.28125 16.71875 L 11.28125 17.625 L 10.09375 17.625 L 10.09375 21.40625 L 8.59375 21.40625 L 8.59375 23.78125 L 9.78125 23.78125 L 9.78125 24.6875 L 11.65625 24.6875 L 11.65625 27.03125 C 12.69025 27.07425 13.712 27.11325 14.75 27.15625 L 14.75 26.25 C 15.155 26.283 15.50625 26.31175 15.90625 26.34375 L 15.90625 24.84375 C 16.52725 24.88875 17.134 24.955 17.75 25 L 17.75 27.40625 C 19.172 27.59325 20.581 27.78075 22 27.96875 L 22 25.4375 C 22.254 25.4545 22.49375 25.45375 22.71875 25.46875 C 23.49775 25.52075 24.26825 25.5065 25.03125 25.3125 C 26.43825 24.9555 27.39725 24.1735 27.78125 22.8125 C 28.02125 21.9735 28.0285 21.111 27.9375 20.25 C 27.8625 19.541 27.6905 18.873 27.3125 18.25 C 27.1945 18.056 27.0695 17.94575 26.8125 17.96875 C 26.6005 17.98775 26.37125 17.9475 26.15625 17.9375 C 25.88025 17.9255 25.5985 17.91925 25.3125 17.90625 C 25.3125 17.51325 25.3025 17.15525 25.3125 16.78125 C 25.3155 16.66525 25.2955 16.5925 25.1875 16.5625 C 24.7105 16.4285 24.231 16.27825 23.75 16.15625 C 23.473 16.08625 23.19625 16.05 22.90625 16 L 22.90625 15.625 C 22.90625 15.192 22.90775 15.2065 23.34375 15.0625 C 24.10175 14.8125 24.82575 14.5385 25.46875 14.0625 C 26.18775 13.5295 26.72625 12.8765 27.03125 12.0625 C 27.30725 11.3275 27.308 10.55025 27.25 9.78125 C 27.205 9.19125 27.07425 8.62075 26.78125 8.09375 C 26.55125 7.68075 26.2325 7.33675 25.8125 7.09375 C 24.9215 6.58075 23.92925 6.446 22.90625 6.5 C 22.60725 6.516 22.303 6.5455 22 6.5625 C 21.994 6.4665 22.005 6.3955 22 6.3125 C 21.601 6.3595 21.1995 6.3925 20.8125 6.4375 L 20.8125 5.46875 C 21.2065 5.41375 21.612 5.3675 22 5.3125 L 22 4.03125 z M 26.5 4.53125 C 26.102 4.60825 25.6995 4.674 25.3125 4.75 L 25.3125 5.8125 C 25.7135 5.7415 26.117 5.66175 26.5 5.59375 L 26.5 4.53125 z M 25 4.8125 C 24.588 4.8845 24.1965 4.932 23.8125 5 L 23.8125 6.0625 C 24.2195 5.9975 24.607 5.937 25 5.875 L 25 4.8125 z M 10.125 5 L 10.125 5.90625 L 11.3125 5.90625 L 11.3125 5 L 10.125 5 z M 23.5 5.0625 C 23.093 5.1255 22.7095 5.189 22.3125 5.25 L 22.3125 6.28125 C 22.7245 6.22325 23.11 6.14875 23.5 6.09375 L 23.5 5.0625 z M 8.59375 6.15625 L 8.59375 7.0625 L 9.78125 7.0625 L 9.78125 6.15625 L 8.59375 6.15625 z M 10.125 6.15625 L 10.125 7.0625 L 11.34375 7.0625 L 11.34375 6.15625 L 10.125 6.15625 z M 4 7.15625 L 4 8.09375 C 4.406 8.11475 4.81675 8.13525 5.21875 8.15625 L 5.21875 7.21875 C 4.81375 7.19775 4.403 7.17725 4 7.15625 z M 5.53125 7.25 L 5.53125 8.1875 L 6.71875 8.1875 L 6.71875 7.25 L 5.53125 7.25 z M 7.0625 7.3125 L 7.0625 8.21875 L 8.25 8.21875 L 8.25 7.3125 L 7.0625 7.3125 z M 14.40625 8.34375 L 14.40625 9.28125 C 14.00725 9.29825 13.5905 9.32675 13.1875 9.34375 L 13.1875 8.40625 C 13.5905 8.38725 14.00625 8.36175 14.40625 8.34375 z M 5.53125 8.4375 L 5.53125 9.375 L 6.71875 9.375 L 6.71875 8.4375 L 5.53125 8.4375 z M 11.6875 8.4375 L 12.84375 8.4375 L 12.84375 9.34375 L 11.6875 9.34375 L 11.6875 8.4375 z M 26.5 8.4375 L 26.5 9.53125 C 26.12 9.57525 25.74075 9.61025 25.34375 9.65625 L 25.34375 8.59375 C 25.71875 8.54175 26.097 8.4935 26.5 8.4375 z M 4 9.5625 C 4 9.8375 3.993 10.1475 4 10.4375 C 4 10.4615 4.06275 10.499 4.09375 10.5 C 4.46275 10.505 4.83975 10.5 5.21875 10.5 L 5.21875 9.5625 L 4 9.5625 z M 7.0625 9.65625 L 7.0625 10.59375 L 8.25 10.59375 L 8.25 9.65625 L 7.0625 9.65625 z M 19.125 9.875 C 21.629 9.815 21.57575 10.85075 21.59375 11.59375 C 21.62675 12.95775 21.011 14.18525 18 14.40625 C 17.898 14.41325 15.4725 14.5 15.4375 14.5 C 15.4365 13.011 15.4375 11.5505 15.4375 10.0625 C 15.5385 10.0565 18.738 9.884 19.125 9.875 z M 4 10.75 L 4 11.6875 L 5.21875 11.6875 L 5.21875 10.75 L 4 10.75 z M 7.0625 10.84375 L 7.0625 11.75 L 8.25 11.75 L 8.25 10.84375 L 7.0625 10.84375 z M 8.59375 10.84375 L 8.59375 11.78125 L 9.8125 11.78125 L 9.8125 10.84375 L 8.59375 10.84375 z M 11.03125 10.84375 L 12.21875 10.84375 L 12.21875 11.75 L 11.03125 11.75 L 11.03125 10.84375 z M 26.5 11.21875 L 26.5 12.34375 C 26.12 12.36775 25.73875 12.38125 25.34375 12.40625 L 25.34375 11.34375 C 25.72975 11.30975 26.107 11.25375 26.5 11.21875 z M 5.53125 11.96875 L 5.53125 12.90625 L 6.71875 12.90625 L 6.71875 11.96875 L 5.53125 11.96875 z M 8.59375 12.03125 L 8.59375 12.9375 L 9.78125 12.9375 L 9.78125 12.03125 L 8.59375 12.03125 z M 12.75 12.03125 L 13.9375 12.03125 L 13.9375 12.9375 L 12.75 12.9375 L 12.75 12.03125 z M 4 13.125 L 4 14.09375 L 5.21875 14.09375 L 5.21875 13.125 L 4 13.125 z M 5.53125 13.15625 L 5.53125 14.09375 L 6.71875 14.09375 L 6.71875 13.15625 L 5.53125 13.15625 z M 7.0625 13.1875 L 7.0625 14.09375 L 8.25 14.09375 L 8.25 13.1875 L 7.0625 13.1875 z M 7.0625 14.34375 L 7.0625 15.28125 L 8.25 15.28125 L 8.25 14.34375 L 7.0625 14.34375 z M 8.59375 14.375 L 8.59375 15.28125 L 9.78125 15.28125 L 9.78125 14.375 L 8.59375 14.375 z M 5.53125 15.53125 L 5.53125 16.46875 L 6.71875 16.46875 L 6.71875 15.53125 L 5.53125 15.53125 z M 8.59375 15.53125 L 8.59375 16.46875 L 9.8125 16.46875 L 9.8125 15.53125 L 8.59375 15.53125 z M 12.59375 15.53125 L 13.78125 15.53125 L 13.78125 16.46875 L 12.59375 16.46875 L 12.59375 15.53125 z M 7.0625 16.71875 L 7.0625 17.65625 L 8.25 17.65625 L 8.25 16.71875 L 7.0625 16.71875 z M 8.59375 16.71875 L 8.59375 17.625 L 9.8125 17.625 L 9.8125 16.71875 L 8.59375 16.71875 z M 15.4375 17.53125 C 15.5125 17.53125 17.644 17.57575 18 17.59375 C 21.767 17.78375 21.867 18.467 22.25 19.75 C 22.359 20.118 22.2915 20.503 22.1875 20.875 C 22.1155 21.135 21.916 22.127 19.5 22.125 C 18.908 22.124 15.5245 22 15.4375 22 L 15.4375 17.53125 z M 5.53125 17.90625 L 5.53125 18.84375 L 6.71875 18.84375 L 6.71875 17.90625 L 5.53125 17.90625 z M 7.0625 17.90625 L 7.0625 18.8125 L 8.28125 18.8125 L 8.28125 17.90625 L 7.0625 17.90625 z M 4 17.9375 L 4 18.84375 L 5.21875 18.84375 L 5.21875 17.9375 L 4 17.9375 z M 8.59375 19.0625 L 8.59375 19.96875 L 9.8125 19.96875 L 9.8125 19.0625 L 8.59375 19.0625 z M 11.375 19.0625 L 12.5625 19.0625 L 12.5625 19.96875 L 11.375 19.96875 L 11.375 19.0625 z M 5.53125 19.09375 L 5.53125 20 L 6.71875 20 L 6.71875 19.09375 L 5.53125 19.09375 z M 4 19.125 L 4 20.03125 L 5.21875 20.03125 L 5.21875 19.125 L 4 19.125 z M 7.0625 20.25 L 7.0625 21.15625 L 8.25 21.15625 L 8.25 20.25 L 7.0625 20.25 z M 8.59375 20.25 L 8.59375 21.15625 L 9.78125 21.15625 L 9.78125 20.25 L 8.59375 20.25 z M 11.375 20.25 L 12.5625 20.25 L 12.5625 21.15625 L 11.375 21.15625 L 11.375 20.25 z M 5.53125 20.28125 L 5.53125 21.1875 L 6.71875 21.1875 L 6.71875 20.28125 L 5.53125 20.28125 z M 25.34375 20.96875 C 25.72375 21.00375 26.105 21.0265 26.5 21.0625 L 26.5 22.15625 C 26.112 22.11325 25.73475 22.07425 25.34375 22.03125 L 25.34375 20.96875 z M 5.53125 21.4375 L 5.53125 22.375 L 6.71875 22.375 L 6.71875 21.4375 L 5.53125 21.4375 z M 7.0625 22.59375 L 7.0625 23.53125 L 8.28125 23.53125 L 8.28125 22.59375 L 7.0625 22.59375 z M 10.15625 22.59375 L 11.34375 22.59375 L 11.34375 23.5 L 10.15625 23.5 L 10.15625 22.59375 z M 5.53125 22.65625 L 5.53125 23.5625 L 6.71875 23.5625 L 6.71875 22.65625 L 5.53125 22.65625 z M 16.3125 22.6875 L 17.5 22.6875 L 17.5 23.65625 C 17.302 23.64725 16.5125 23.60275 16.3125 23.59375 L 16.3125 22.6875 z M 19.34375 22.8125 C 19.64375 22.8325 19.956 22.856 20.25 22.875 C 20.348 22.882 20.43225 22.90025 20.53125 22.90625 L 20.53125 23.84375 C 20.23925 23.82275 19.44475 23.78825 19.34375 23.78125 L 19.34375 22.8125 z M 7.0625 23.78125 L 7.0625 24.6875 L 8.25 24.6875 L 8.25 23.78125 L 7.0625 23.78125 z M 5.21875 23.84375 C 4.80575 23.86575 4.397 23.88525 4 23.90625 L 4 24.84375 C 4.407 24.81975 4.81475 24.80425 5.21875 24.78125 L 5.21875 23.84375 z M 8.59375 24.9375 L 8.59375 25.84375 L 9.8125 25.84375 L 9.8125 24.9375 L 8.59375 24.9375 z M 10.125 24.9375 L 10.125 25.84375 L 11.34375 25.84375 L 11.34375 24.9375 L 10.125 24.9375 z M 13.1875 24.9375 L 14.40625 24.9375 L 14.40625 25.84375 L 13.1875 25.84375 L 13.1875 24.9375 z M 6.71875 24.96875 C 6.31375 24.98575 5.92725 25.01425 5.53125 25.03125 L 5.53125 25.96875 C 5.93625 25.95075 6.32275 25.92425 6.71875 25.90625 L 6.71875 24.96875 z M 7.0625 24.96875 L 7.0625 25.875 L 8.25 25.875 L 8.25 24.96875 L 7.0625 24.96875 z M 5.21875 25.03125 C 4.81175 25.05625 4.404 25.06975 4 25.09375 L 4 26.0625 C 4.41 26.0355 4.81775 25.99475 5.21875 25.96875 L 5.21875 25.03125 z M 16.21875 25.125 L 16.21875 26.0625 C 16.63375 26.0955 17.0435 26.1565 17.4375 26.1875 C 17.4485 26.1575 17.46875 26.135 17.46875 26.125 C 17.46975 25.938 17.46875 25.7495 17.46875 25.5625 C 17.46875 25.2215 17.44375 25.2195 17.09375 25.1875 C 17.05875 25.1845 17.034 25.1905 17 25.1875 C 16.744 25.1705 16.48075 25.143 16.21875 25.125 z M 22.3125 25.71875 L 22.3125 26.75 C 22.7105 26.811 23.095 26.8755 23.5 26.9375 L 23.5 25.90625 C 23.098 25.85025 22.7125 25.77475 22.3125 25.71875 z M 23.8125 25.9375 C 23.8125 26.0405 23.8125 26.12775 23.8125 26.21875 C 23.8125 26.30975 23.8115 26.413 23.8125 26.5 C 23.8135 26.619 23.76025 26.768 23.78125 26.875 C 23.78825 26.911 23.82275 26.94375 23.84375 26.96875 C 23.91775 27.06175 24.12225 27.0335 24.28125 27.0625 C 24.51625 27.1055 24.761 27.1475 25 27.1875 L 25 26.125 C 24.602 26.062 24.2265 26.0015 23.8125 25.9375 z M 10.125 26.09375 L 10.125 27.03125 L 11.34375 27.03125 L 11.34375 26.09375 L 10.125 26.09375 z M 7.0625 26.125 L 7.0625 27.0625 L 8.28125 27.0625 L 8.28125 26.125 L 7.0625 26.125 z M 25.3125 26.1875 L 25.3125 27.25 C 25.7045 27.326 26.103 27.39175 26.5 27.46875 L 26.5 26.40625 C 26.103 26.33625 25.7075 26.2555 25.3125 26.1875 z M 16.25 26.3125 L 16.25 27.28125 C 16.655 27.31825 17.0255 27.337 17.4375 27.375 L 17.4375 26.4375 L 17.4375 26.40625 C 17.0255 26.37425 16.652 26.3455 16.25 26.3125 z M 22.3125 27 L 22.3125 28.03125 C 22.7115 28.10025 23.095 28.18 23.5 28.25 L 23.5 27.1875 C 23.1 27.1245 22.7165 27.064 22.3125 27 z M 10.125 27.28125 L 10.125 28.3125 L 11.34375 28.3125 L 11.34375 27.28125 L 10.125 27.28125 z M 11.65625 27.3125 L 11.65625 28.34375 L 12.84375 28.34375 L 12.84375 27.3125 L 11.65625 27.3125 z M 13.15625 27.3125 C 13.15525 27.6535 13.1785 27.9955 13.1875 28.3125 C 13.1885 28.3465 13.23725 28.40125 13.28125 28.40625 C 13.45925 28.42525 13.6325 28.4295 13.8125 28.4375 C 14.0005 28.4465 14.21625 28.46075 14.40625 28.46875 L 14.40625 27.375 C 13.99025 27.355 13.56925 27.3325 13.15625 27.3125 z M 14.71875 27.40625 L 14.71875 28.46875 C 15.12275 28.50075 15.5215 28.5295 15.9375 28.5625 L 15.9375 27.875 C 15.9375 27.513 15.91125 27.50375 15.53125 27.46875 C 15.25625 27.44375 15.00375 27.42725 14.71875 27.40625 z M 17.75 27.65625 L 17.75 28.75 C 18.155 28.8 18.56475 28.85625 18.96875 28.90625 L 18.96875 27.8125 C 18.56575 27.7665 18.155 27.70225 17.75 27.65625 z M 19.28125 27.84375 L 19.28125 28.96875 C 19.68625 29.02875 20.098 29.065 20.5 29.125 L 20.5 28 C 20.094 27.944 19.68125 27.89675 19.28125 27.84375 z M 22.28125 28.28125 C 22.28125 28.66425 22.27625 29.029 22.28125 29.375 C 22.28225 29.407 22.345 29.46275 22.375 29.46875 C 22.748 29.54475 23.115 29.6145 23.5 29.6875 L 23.5 28.5 C 23.102 28.43 22.69825 28.35425 22.28125 28.28125 z M 23.8125 28.5625 C 23.8125 28.9405 23.8065 29.30425 23.8125 29.65625 C 23.8135 29.69325 23.843 29.743 23.875 29.75 C 24.246 29.835 24.608 29.916 25 30 C 25 29.615 25.008 29.248 25 28.875 C 24.999 28.843 24.95025 28.79125 24.90625 28.78125 C 24.67525 28.72925 24.4195 28.67 24.1875 28.625 C 24.0605 28.601 23.9545 28.5885 23.8125 28.5625 z"/>
</svg>
