<?xml version="1.0" encoding="UTF-8"?>
<svg width="107px" height="117px" viewBox="0 0 107 117" version="1.1" xmlns="http://www.w3.org/2000/svg" xmlns:xlink="http://www.w3.org/1999/xlink">
    <!-- Generator: Sketch 48.2 (47327) - http://www.bohemiancoding.com/sketch -->
    <title>icon</title>
    <desc>Created with Sketch.</desc>
    <defs>
        <path d="M51.8831461,103.415964 C28.120741,103.415964 13.0434254,101.854385 11.4297358,101.677209 C6.38196174,101.595569 2.28781051,97.5031551 2.20617067,92.451907 C2.03073186,90.8399543 0.46741573,75.7609018 0.46741573,51.9984967 C0.46741573,28.2378286 2.03073186,13.1605131 2.20617067,11.5468234 C2.28781051,6.49731236 6.38196174,2.40489815 11.4297358,2.32325831 C13.0434254,2.14608248 28.120741,0.584503371 51.8831461,0.584503371 C75.6472882,0.584503371 90.7246037,2.1478195 92.3365563,2.32325831 C97.2592651,2.40489815 101.278725,6.39656532 101.55491,11.4929759 C101.695609,12.7835802 103.298876,27.9390615 103.298876,51.9984967 C103.298876,75.7609018 101.73556,90.8399543 101.560121,92.451907 C101.478482,97.5031551 97.3843304,101.595569 92.3365563,101.677209 C90.7228667,101.854385 75.6455512,103.415964 51.8831461,103.415964" id="path-1"></path>
        <filter x="-2.4%" y="-2.4%" width="104.9%" height="104.9%" filterUnits="objectBoundingBox" id="filter-3">
            <feOffset dx="0" dy="-5" in="SourceAlpha" result="shadowOffsetInner1"></feOffset>
            <feComposite in="shadowOffsetInner1" in2="SourceAlpha" operator="arithmetic" k2="-1" k3="1" result="shadowInnerInner1"></feComposite>
            <feColorMatrix values="0 0 0 0 0.926439757   0 0 0 0 0.897293245   0 0 0 0 1  0 0 0 1 0" type="matrix" in="shadowInnerInner1"></feColorMatrix>
        </filter>
        <path d="M51.4157303,31.8314607 C27.6533252,31.8314607 12.5760097,30.2698816 10.9623201,30.0927057 C5.91454601,30.0110659 1.82039478,25.9186517 1.73875493,20.8674036 C1.56331613,19.255451 0,4.17639842 0,-19.5860067 C0,-43.3466748 1.56331613,-58.4239903 1.73875493,-60.0376799 C1.82039478,-65.087191 5.91454601,-69.1796052 10.9623201,-69.2612451 C12.5760097,-69.4384209 27.6533252,-71 51.4157303,-71 C75.1798725,-71 90.257188,-69.4366839 91.8691406,-69.2612451 C96.7918494,-69.1796052 100.811309,-65.1879381 101.087495,-60.0915275 C101.228193,-58.8009232 102.831461,-43.6454418 102.831461,-19.5860067 C102.831461,4.17639842 101.268145,19.255451 101.092706,20.8674036 C101.011066,25.9186517 96.9169147,30.0110659 91.8691406,30.0927057 C90.255451,30.2698816 75.1781354,31.8314607 51.4157303,31.8314607" id="path-4"></path>
        <filter x="-3.4%" y="-3.4%" width="106.8%" height="106.8%" filterUnits="objectBoundingBox" id="filter-5">
            <feOffset dx="0" dy="-4" in="SourceAlpha" result="shadowOffsetInner1"></feOffset>
            <feComposite in="shadowOffsetInner1" in2="SourceAlpha" operator="arithmetic" k2="-1" k3="1" result="shadowInnerInner1"></feComposite>
            <feColorMatrix values="0 0 0 0 0   0 0 0 0 0   0 0 0 0 0  0 0 0 0.103204257 0" type="matrix" in="shadowInnerInner1"></feColorMatrix>
        </filter>
        <rect id="path-6" x="15" y="0.0766200735" width="16" height="27.9233799" rx="7"></rect>
        <filter x="-6.2%" y="-3.6%" width="112.5%" height="114.3%" filterUnits="objectBoundingBox" id="filter-7">
            <feOffset dx="0" dy="2" in="SourceAlpha" result="shadowOffsetOuter1"></feOffset>
            <feComposite in="shadowOffsetOuter1" in2="SourceAlpha" operator="out" result="shadowOffsetOuter1"></feComposite>
            <feColorMatrix values="0 0 0 0 0   0 0 0 0 0   0 0 0 0 0  0 0 0 0.186820652 0" type="matrix" in="shadowOffsetOuter1"></feColorMatrix>
        </filter>
        <filter x="-18.8%" y="-10.7%" width="137.5%" height="128.6%" filterUnits="objectBoundingBox" id="filter-8">
            <feOffset dx="0" dy="-6" in="SourceAlpha" result="shadowOffsetInner1"></feOffset>
            <feComposite in="shadowOffsetInner1" in2="SourceAlpha" operator="arithmetic" k2="-1" k3="1" result="shadowInnerInner1"></feComposite>
            <feColorMatrix values="0 0 0 0 0.925490196   0 0 0 0 0.898039216   0 0 0 0 1  0 0 0 1 0" type="matrix" in="shadowInnerInner1"></feColorMatrix>
        </filter>
        <rect id="path-9" x="69" y="0.0766200735" width="16" height="27.9233799" rx="7"></rect>
        <filter x="-6.2%" y="-3.6%" width="112.5%" height="114.3%" filterUnits="objectBoundingBox" id="filter-10">
            <feOffset dx="0" dy="2" in="SourceAlpha" result="shadowOffsetOuter1"></feOffset>
            <feComposite in="shadowOffsetOuter1" in2="SourceAlpha" operator="out" result="shadowOffsetOuter1"></feComposite>
            <feColorMatrix values="0 0 0 0 0   0 0 0 0 0   0 0 0 0 0  0 0 0 0.186820652 0" type="matrix" in="shadowOffsetOuter1"></feColorMatrix>
        </filter>
        <filter x="-18.8%" y="-10.7%" width="137.5%" height="128.6%" filterUnits="objectBoundingBox" id="filter-11">
            <feOffset dx="0" dy="-6" in="SourceAlpha" result="shadowOffsetInner1"></feOffset>
            <feComposite in="shadowOffsetInner1" in2="SourceAlpha" operator="arithmetic" k2="-1" k3="1" result="shadowInnerInner1"></feComposite>
            <feColorMatrix values="0 0 0 0 0.925490196   0 0 0 0 0.898039216   0 0 0 0 1  0 0 0 1 0" type="matrix" in="shadowInnerInner1"></feColorMatrix>
        </filter>
        <path d="M23.2503529,0 C23.6625882,0 24,0.309285021 24,0.68715626 L24,1.00032352 C24,7.05014558 18.6,12 12,12 C5.4,12 0,7.05014558 0,1.00032352 L0,0.68715626 C0,0.309285021 0.337411765,0 0.749647059,0 L23.2503529,0" id="path-12"></path>
        <filter x="-14.6%" y="-29.2%" width="129.2%" height="183.3%" filterUnits="objectBoundingBox" id="filter-13">
            <feMorphology radius="2" operator="dilate" in="SourceAlpha" result="shadowSpreadOuter1"></feMorphology>
            <feOffset dx="0" dy="3" in="shadowSpreadOuter1" result="shadowOffsetOuter1"></feOffset>
            <feComposite in="shadowOffsetOuter1" in2="SourceAlpha" operator="out" result="shadowOffsetOuter1"></feComposite>
            <feColorMatrix values="0 0 0 0 0.925490196   0 0 0 0 0.898039216   0 0 0 0 1  0 0 0 1 0" type="matrix" in="shadowOffsetOuter1"></feColorMatrix>
        </filter>
        <path d="M23.2503529,0 C23.6625882,0 24,0.309285021 24,0.68715626 L24,1.00032352 C24,7.05014558 18.6,12 12,12 C5.4,12 0,7.05014558 0,1.00032352 L0,0.68715626 C0,0.309285021 0.337411765,0 0.749647059,0 L23.2503529,0" id="path-14"></path>
    </defs>
    <g id="Pro" stroke="none" stroke-width="1" fill="none" fill-rule="evenodd" transform="translate(-132.000000, -4495.000000)">
        <g id="limited-to-10-developers" transform="translate(-261.000000, 3983.000000)">
            <g id="icon" transform="translate(395.000000, 512.000000)">
                <g id="Page-1">
                    <g id="Fill-1" transform="translate(0.000000, 12.000000)">
                        <mask id="mask-2" fill="white">
                            <use xlink:href="#path-1"></use>
                        </mask>
                        <g id="Mask">
                            <use fill="#FFFFFF" fill-rule="evenodd" xlink:href="#path-1"></use>
                            <use fill="black" fill-opacity="1" filter="url(#filter-3)" xlink:href="#path-1"></use>
                        </g>
                        <g id="Mask" mask="url(#mask-2)">
                            <use fill="#FF3660" fill-rule="evenodd" xlink:href="#path-4"></use>
                            <use fill="black" fill-opacity="1" filter="url(#filter-5)" xlink:href="#path-4"></use>
                            <use stroke="#423875" stroke-width="3" xlink:href="#path-4"></use>
                        </g>
                        <path d="M51.8831461,103.415964 C28.120741,103.415964 13.0434254,101.854385 11.4297358,101.677209 C6.38196174,101.595569 2.28781051,97.5031551 2.20617067,92.451907 C2.03073186,90.8399543 0.46741573,75.7609018 0.46741573,51.9984967 C0.46741573,28.2378286 2.03073186,13.1605131 2.20617067,11.5468234 C2.28781051,6.49731236 6.38196174,2.40489815 11.4297358,2.32325831 C13.0434254,2.14608248 28.120741,0.584503371 51.8831461,0.584503371 C75.6472882,0.584503371 90.7246037,2.1478195 92.3365563,2.32325831 C97.2592651,2.40489815 101.278725,6.39656532 101.55491,11.4929759 C101.695609,12.7835802 103.298876,27.9390615 103.298876,51.9984967 C103.298876,75.7609018 101.73556,90.8399543 101.560121,92.451907 C101.478482,97.5031551 97.3843304,101.595569 92.3365563,101.677209 C90.7228667,101.854385 75.6455512,103.415964 51.8831461,103.415964" id="Mask" stroke="#423875" stroke-width="3"></path>
                    </g>
                    <g id="Rectangle-14">
                        <use fill="black" fill-opacity="1" filter="url(#filter-7)" xlink:href="#path-6"></use>
                        <use fill="#FFFFFF" fill-rule="evenodd" xlink:href="#path-6"></use>
                        <use fill="black" fill-opacity="1" filter="url(#filter-8)" xlink:href="#path-6"></use>
                        <rect stroke="#423875" stroke-width="3" x="16.5" y="1.57662007" width="13" height="24.9233799" rx="6.5"></rect>
                    </g>
                    <g id="Rectangle-14-Copy">
                        <use fill="black" fill-opacity="1" filter="url(#filter-10)" xlink:href="#path-9"></use>
                        <use fill="#FFFFFF" fill-rule="evenodd" xlink:href="#path-9"></use>
                        <use fill="black" fill-opacity="1" filter="url(#filter-11)" xlink:href="#path-9"></use>
                        <rect stroke="#423875" stroke-width="3" x="70.5" y="1.57662007" width="13" height="24.9233799" rx="6.5"></rect>
                    </g>
                </g>
                <g id="Group-2" transform="translate(21.000000, 55.000000)">
                    <path d="M14,7 C14,3.13409091 10.8659091,0 7,0 C3.13409091,0 0,3.13409091 0,7 C0,10.8659091 3.13409091,14 7,14 C10.8659091,14 14,10.8659091 14,7" id="Page-1" fill="#423875"></path>
                    <circle id="Oval-5" fill="#FFFFFF" cx="6" cy="6" r="2"></circle>
                </g>
                <g id="Group-2-Copy" transform="translate(67.000000, 55.000000)">
                    <path d="M14,7 C14,3.13409091 10.8659091,0 7,0 C3.13409091,0 0,3.13409091 0,7 C0,10.8659091 3.13409091,14 7,14 C10.8659091,14 14,10.8659091 14,7" id="Page-1" fill="#423875"></path>
                    <circle id="Oval-5" fill="#FFFFFF" cx="6" cy="6" r="2"></circle>
                </g>
                <ellipse id="Oval-6" fill="#FF4C74" opacity="0.100000001" cx="18" cy="81" rx="7" ry="2"></ellipse>
                <ellipse id="Oval-6-Copy" fill="#FF4C74" opacity="0.100000001" cx="84" cy="81" rx="7" ry="2"></ellipse>
                <g id="Oval-3" transform="translate(39.000000, 85.000000)">
                    <g id="Mask">
                        <use fill="black" fill-opacity="1" filter="url(#filter-13)" xlink:href="#path-12"></use>
                        <use stroke="#423875" stroke-width="4" fill="#B92815" fill-rule="evenodd" xlink:href="#path-12"></use>
                    </g>
                    <mask id="mask-15" fill="white">
                        <use xlink:href="#path-14"></use>
                    </mask>
                    <use id="Mask" fill="#FF4C74" xlink:href="#path-14"></use>
                    <ellipse fill="#D4264D" mask="url(#mask-15)" cx="12" cy="12" rx="7" ry="6"></ellipse>
                </g>
            </g>
        </g>
    </g>
</svg>