<?xml version="1.0" encoding="UTF-8"?>
<svg width="53px" height="45px" viewBox="0 0 53 45" version="1.1" xmlns="http://www.w3.org/2000/svg" xmlns:xlink="http://www.w3.org/1999/xlink">
    <!-- Generator: Sketch 47.1 (45422) - http://www.bohemiancoding.com/sketch -->
    <title>Group 6</title>
    <desc>Created with Sketch.</desc>
    <defs></defs>
    <g id="Page-1" stroke="none" stroke-width="1" fill="none" fill-rule="evenodd" opacity="0.857846467">
        <g id="Group-6" fill-rule="nonzero" fill="#000000">
            <g id="logo-2">
                <g id="Group">
                    <g transform="translate(0.000000, 14.981192)" id="g1LtdzAgdv-link">
                        <g>
                            <path d="M11.4578967,0.4029424 L12.0158105,0.49076318 L12.5737244,0.614745457 L13.1213064,0.769723303 L13.6637226,0.960862647 L14.200973,1.18299756 L14.7227257,1.4464599 L15.2393126,1.74091781 L15.7404018,2.07153721 L16.2259935,2.43315219 L16.7012534,2.83092866 L17.1558499,3.26486663 L17.5949487,3.73496609 L18.0133841,4.2308952 L18.3956583,4.74748802 L18.7469374,5.27957863 L19.0723871,5.83233295 L19.3616758,6.40058505 L19.6251351,6.97916901 L19.8524333,7.57325075 L20.0539022,8.17766435 L20.21921,8.78724388 L20.3586884,9.40715527 L20.4671717,10.0373985 L20.5446597,10.6676418 L20.5911525,11.3030509 L20.6066501,11.9384601 L20.5911525,12.5738693 L20.5446597,13.2092784 L20.4671717,13.8395217 L20.3586884,14.464599 L20.21921,15.0845104 L20.0539022,15.6992558 L19.8524333,16.3036694 L19.6251351,16.8977512 L19.3616758,17.4763351 L19.0723871,18.0445872 L18.7469374,18.5973416 L18.3956583,19.1294322 L18.0133841,19.646025 L17.5949487,20.1419541 L10.3369032,28.3454481 L3.07369186,20.1419541 L2.66042237,19.646025 L2.27298222,19.1294322 L1.92170315,18.5973416 L1.60141929,18.0445872 L1.30696477,17.4763351 L1.04867134,16.8977512 L0.81620725,16.3036694 L0.614738372,15.6992558 L0.449430575,15.0896763 L0.30995212,14.464599 L0.201468878,13.8395217 L0.123980848,13.2092784 L0.0774880301,12.5738693 L0.0671562927,11.9384601 L0.0774880301,11.3030509 L0.123980848,10.6676418 L0.201468878,10.0373985 L0.30995212,9.40715527 L0.449430575,8.78724388 L0.614738372,8.17766435 L0.81620725,7.57325075 L1.04867134,6.97916901 L1.30696477,6.40058505 L1.60141929,5.83233295 L1.92170315,5.27957863 L2.27298222,4.74748802 L2.66042237,4.2308952 L3.07369186,3.73496609 L3.5127907,3.26486663 L3.96738714,2.83092866 L4.44264706,2.43315219 L4.92823871,2.07153721 L5.42932798,1.74091781 L5.94591484,1.4464599 L6.46766758,1.18299756 L7.00491792,0.960862647 L7.54733413,0.769723303 L8.09491621,0.614745457 L8.65283003,0.49076318 L9.21074384,0.4029424 L9.77382353,0.351283118 L10.3369032,0.335785334 L10.8999829,0.351283118 L11.4578967,0.4029424 Z M8.98861149,6.13712271 L8.36870725,6.36958948 L7.79529583,6.68987703 L7.27354309,7.08248757 L6.81378078,7.54225518 L6.42117476,8.06401393 L6.1008909,8.63743196 L5.86326094,9.25734335 L5.71861662,9.91858216 L5.66695793,10.6056506 L5.71861662,11.297885 L5.86326094,11.9539579 L6.1008909,12.5738693 L6.42117476,13.1472873 L6.81378078,13.669046 L7.27354309,14.1288136 L7.79529583,14.5214242 L8.36870725,14.8417117 L8.98861149,15.0741785 L9.64467681,15.2239904 L10.3369032,15.2756497 L11.0239637,15.2239904 L11.6851949,15.0741785 L12.3050992,14.8417117 L12.8785106,14.5214242 L13.3950975,14.1288136 L13.8600256,13.669046 L14.2526317,13.1472873 L14.5677497,12.5738693 L14.8053796,11.9539579 L14.9500239,11.297885 L15.0016826,10.6056506 L14.9500239,9.91858216 L14.8053796,9.25734335 L14.5677497,8.63743196 L14.2526317,8.06401393 L13.8600256,7.54225518 L13.3950975,7.08248757 L12.8785106,6.68987703 L12.3050992,6.36958948 L11.6851949,6.13712271 L11.0239637,5.98731079 L10.3369032,5.93565151 L9.64467681,5.98731079 L8.98861149,6.13712271 Z" id="g1LtdzAgdv"></path>
                        </g>
                        <g stroke="#000000" stroke-opacity="0" fill-opacity="0">
                            <path d="M11.4578967,0.4029424 L12.0158105,0.49076318 L12.5737244,0.614745457 L13.1213064,0.769723303 L13.6637226,0.960862647 L14.200973,1.18299756 L14.7227257,1.4464599 L15.2393126,1.74091781 L15.7404018,2.07153721 L16.2259935,2.43315219 L16.7012534,2.83092866 L17.1558499,3.26486663 L17.5949487,3.73496609 L18.0133841,4.2308952 L18.3956583,4.74748802 L18.7469374,5.27957863 L19.0723871,5.83233295 L19.3616758,6.40058505 L19.6251351,6.97916901 L19.8524333,7.57325075 L20.0539022,8.17766435 L20.21921,8.78724388 L20.3586884,9.40715527 L20.4671717,10.0373985 L20.5446597,10.6676418 L20.5911525,11.3030509 L20.6066501,11.9384601 L20.5911525,12.5738693 L20.5446597,13.2092784 L20.4671717,13.8395217 L20.3586884,14.464599 L20.21921,15.0845104 L20.0539022,15.6992558 L19.8524333,16.3036694 L19.6251351,16.8977512 L19.3616758,17.4763351 L19.0723871,18.0445872 L18.7469374,18.5973416 L18.3956583,19.1294322 L18.0133841,19.646025 L17.5949487,20.1419541 L10.3369032,28.3454481 L3.07369186,20.1419541 L2.66042237,19.646025 L2.27298222,19.1294322 L1.92170315,18.5973416 L1.60141929,18.0445872 L1.30696477,17.4763351 L1.04867134,16.8977512 L0.81620725,16.3036694 L0.614738372,15.6992558 L0.449430575,15.0896763 L0.30995212,14.464599 L0.201468878,13.8395217 L0.123980848,13.2092784 L0.0774880301,12.5738693 L0.0671562927,11.9384601 L0.0774880301,11.3030509 L0.123980848,10.6676418 L0.201468878,10.0373985 L0.30995212,9.40715527 L0.449430575,8.78724388 L0.614738372,8.17766435 L0.81620725,7.57325075 L1.04867134,6.97916901 L1.30696477,6.40058505 L1.60141929,5.83233295 L1.92170315,5.27957863 L2.27298222,4.74748802 L2.66042237,4.2308952 L3.07369186,3.73496609 L3.5127907,3.26486663 L3.96738714,2.83092866 L4.44264706,2.43315219 L4.92823871,2.07153721 L5.42932798,1.74091781 L5.94591484,1.4464599 L6.46766758,1.18299756 L7.00491792,0.960862647 L7.54733413,0.769723303 L8.09491621,0.614745457 L8.65283003,0.49076318 L9.21074384,0.4029424 L9.77382353,0.351283118 L10.3369032,0.335785334 L10.8999829,0.351283118 L11.4578967,0.4029424 Z M8.98861149,6.13712271 L8.36870725,6.36958948 L7.79529583,6.68987703 L7.27354309,7.08248757 L6.81378078,7.54225518 L6.42117476,8.06401393 L6.1008909,8.63743196 L5.86326094,9.25734335 L5.71861662,9.91858216 L5.66695793,10.6056506 L5.71861662,11.297885 L5.86326094,11.9539579 L6.1008909,12.5738693 L6.42117476,13.1472873 L6.81378078,13.669046 L7.27354309,14.1288136 L7.79529583,14.5214242 L8.36870725,14.8417117 L8.98861149,15.0741785 L9.64467681,15.2239904 L10.3369032,15.2756497 L11.0239637,15.2239904 L11.6851949,15.0741785 L12.3050992,14.8417117 L12.8785106,14.5214242 L13.3950975,14.1288136 L13.8600256,13.669046 L14.2526317,13.1472873 L14.5677497,12.5738693 L14.8053796,11.9539579 L14.9500239,11.297885 L15.0016826,10.6056506 L14.9500239,9.91858216 L14.8053796,9.25734335 L14.5677497,8.63743196 L14.2526317,8.06401393 L13.8600256,7.54225518 L13.3950975,7.08248757 L12.8785106,6.68987703 L12.3050992,6.36958948 L11.6851949,6.13712271 L11.0239637,5.98731079 L10.3369032,5.93565151 L9.64467681,5.98731079 L8.98861149,6.13712271 Z" id="g1LtdzAgdv"></path>
                        </g>
                    </g>
                    <g id="cihzhlZ4S-link" transform="translate(25.312756, 39.777647)">
                        <path d="M4.29283687,2.2523447 C4.29283687,3.36301926 3.39397572,4.2670567 2.28331395,4.2670567 C1.17265219,4.2670567 0.268625171,3.36301926 0.268625171,2.2523447 C0.268625171,1.14167013 1.17265219,0.242798626 2.28331395,0.242798626 C3.39397572,0.242798626 4.29283687,1.14167013 4.29283687,2.2523447 Z" id="cihzhlZ4S"></path>
                    </g>
                    <g id="bsIejDHVc-link" transform="translate(15.497606, 39.777647)">
                        <path d="M4.1068656,2.41248847 C4.1068656,3.52316304 3.20283858,4.42203455 2.09217681,4.42203455 C0.981515048,4.42203455 0.0774880301,3.52316304 0.0774880301,2.41248847 C0.0774880301,1.30181391 0.981515048,0.397776472 2.09217681,0.397776472 C3.20283858,0.397776472 4.1068656,1.30181391 4.1068656,2.41248847 Z" id="bsIejDHVc"></path>
                    </g>
                    <g id="a173fu4HbD-link" transform="translate(25.312756, 17.564156)">
                        <path d="M4.29283687,2.12319649 C4.29283687,3.23387106 3.39397572,4.13790849 2.28331395,4.13790849 C1.17265219,4.13790849 0.268625171,3.23387106 0.268625171,2.12319649 C0.268625171,1.01252193 1.17265219,0.113650421 2.28331395,0.113650421 C3.39397572,0.113650421 4.29283687,1.01252193 4.29283687,2.12319649 Z" id="a173fu4HbD"></path>
                    </g>
                    <g id="f831PIlgCP-link" transform="translate(25.312756, 28.929198)">
                        <path d="M4.29283687,2.40732255 C4.29283687,3.51799711 3.39397572,4.41686862 2.28331395,4.41686862 C1.17265219,4.41686862 0.268625171,3.51799711 0.268625171,2.40732255 C0.268625171,1.29664798 1.17265219,0.392610544 2.28331395,0.392610544 C3.39397572,0.392610544 4.29283687,1.29664798 4.29283687,2.40732255 Z" id="f831PIlgCP"></path>
                    </g>
                    <g id="a3cS5RJ87E-link" transform="translate(34.611320, 17.564156)">
                        <path d="M4.47364227,2.12319649 C4.47364227,3.23387106 3.57478112,4.13790849 2.46411936,4.13790849 C1.35345759,4.13790849 0.449430575,3.23387106 0.449430575,2.12319649 C0.449430575,1.01252193 1.35345759,0.113650421 2.46411936,0.113650421 C3.57478112,0.113650421 4.47364227,1.01252193 4.47364227,2.12319649 Z" id="a3cS5RJ87E"></path>
                    </g>
                    <g transform="translate(37.710841, 0.000000)" id="e2udnO0qNs-link">
                        <g>
                            <path d="M8.3273803,0.278960123 L8.89045999,0.382278687 L9.4483738,0.537256534 L9.99595588,0.743893662 L10.5332062,1.00219007 L11.0497931,1.31214576 L11.5457165,1.67892667 L12.0209764,2.09220092 L12.470407,2.55713446 L12.8836765,3.06856136 L13.2504531,3.60065196 L13.570737,4.16373814 L13.844528,4.74748802 L14.0769921,5.35190162 L14.2577975,5.97181301 L14.397276,6.60205625 L14.4902616,7.23746542 L14.5367544,7.88320645 L14.5367544,8.52894747 L14.4902616,9.16952257 L14.397276,9.81009767 L14.2577975,10.4403409 L14.0769921,11.0550864 L13.844528,11.6595 L13.570737,12.2432499 L13.2504531,12.806336 L12.8836765,13.3435926 L12.470407,13.8498535 L7.47501197,19.4962131 L2.47445109,13.8498535 L2.0611816,13.3435926 L1.69440492,12.806336 L1.37412107,12.2432499 L1.10033003,11.6595 L0.867865937,11.0550864 L0.687060534,10.4403409 L0.547582079,9.81009767 L0.454596443,9.16952257 L0.413269494,8.52894747 L0.413269494,7.88320645 L0.454596443,7.23746542 L0.547582079,6.60205625 L0.687060534,5.97181301 L0.867865937,5.35190162 L1.10033003,4.74748802 L1.37412107,4.16373814 L1.69440492,3.60065196 L2.0611816,3.06856136 L2.47445109,2.55713446 L2.92388167,2.09220092 L3.39914159,1.67892667 L3.89506498,1.31214576 L4.41681772,1.00219007 L4.94890219,0.743893662 L5.49648427,0.537256534 L6.05439808,0.382278687 L6.61747777,0.278960123 L7.18572332,0.227300841 L7.75913475,0.227300841 L8.3273803,0.278960123 Z M6.05956395,4.40137083 L5.46548906,4.77848359 L4.96439979,5.27957863 L4.58729138,5.87366037 L4.34449555,6.55039697 L4.26184166,7.2891247 L4.34449555,8.02268651 L4.58729138,8.6994231 L4.96439979,9.29867078 L5.46548906,9.79459988 L6.05956395,10.1717126 L6.73629275,10.4145113 L7.47501197,10.502332 L8.20856532,10.4145113 L8.88529412,10.1717126 L9.48453488,9.79459988 L9.98045828,9.29867078 L10.3575667,8.6994231 L10.6003625,8.02268651 L10.6881823,7.2891247 L10.6003625,6.55039697 L10.3575667,5.87366037 L9.98045828,5.27957863 L9.48453488,4.77848359 L8.88529412,4.40137083 L8.20856532,4.15857221 L7.47501197,4.07591736 L6.73629275,4.15857221 L6.05956395,4.40137083 Z" id="e2udnO0qNs"></path>
                        </g>
                        <g stroke="#000000" stroke-opacity="0" fill-opacity="0">
                            <path d="M8.3273803,0.278960123 L8.89045999,0.382278687 L9.4483738,0.537256534 L9.99595588,0.743893662 L10.5332062,1.00219007 L11.0497931,1.31214576 L11.5457165,1.67892667 L12.0209764,2.09220092 L12.470407,2.55713446 L12.8836765,3.06856136 L13.2504531,3.60065196 L13.570737,4.16373814 L13.844528,4.74748802 L14.0769921,5.35190162 L14.2577975,5.97181301 L14.397276,6.60205625 L14.4902616,7.23746542 L14.5367544,7.88320645 L14.5367544,8.52894747 L14.4902616,9.16952257 L14.397276,9.81009767 L14.2577975,10.4403409 L14.0769921,11.0550864 L13.844528,11.6595 L13.570737,12.2432499 L13.2504531,12.806336 L12.8836765,13.3435926 L12.470407,13.8498535 L7.47501197,19.4962131 L2.47445109,13.8498535 L2.0611816,13.3435926 L1.69440492,12.806336 L1.37412107,12.2432499 L1.10033003,11.6595 L0.867865937,11.0550864 L0.687060534,10.4403409 L0.547582079,9.81009767 L0.454596443,9.16952257 L0.413269494,8.52894747 L0.413269494,7.88320645 L0.454596443,7.23746542 L0.547582079,6.60205625 L0.687060534,5.97181301 L0.867865937,5.35190162 L1.10033003,4.74748802 L1.37412107,4.16373814 L1.69440492,3.60065196 L2.0611816,3.06856136 L2.47445109,2.55713446 L2.92388167,2.09220092 L3.39914159,1.67892667 L3.89506498,1.31214576 L4.41681772,1.00219007 L4.94890219,0.743893662 L5.49648427,0.537256534 L6.05439808,0.382278687 L6.61747777,0.278960123 L7.18572332,0.227300841 L7.75913475,0.227300841 L8.3273803,0.278960123 Z M6.05956395,4.40137083 L5.46548906,4.77848359 L4.96439979,5.27957863 L4.58729138,5.87366037 L4.34449555,6.55039697 L4.26184166,7.2891247 L4.34449555,8.02268651 L4.58729138,8.6994231 L4.96439979,9.29867078 L5.46548906,9.79459988 L6.05956395,10.1717126 L6.73629275,10.4145113 L7.47501197,10.502332 L8.20856532,10.4145113 L8.88529412,10.1717126 L9.48453488,9.79459988 L9.98045828,9.29867078 L10.3575667,8.6994231 L10.6003625,8.02268651 L10.6881823,7.2891247 L10.6003625,6.55039697 L10.3575667,5.87366037 L9.98045828,5.27957863 L9.48453488,4.77848359 L8.88529412,4.40137083 L8.20856532,4.15857221 L7.47501197,4.07591736 L6.73629275,4.15857221 L6.05956395,4.40137083 Z" id="e2udnO0qNs"></path>
                        </g>
                    </g>
                </g>
            </g>
        </g>
    </g>
</svg>