<?xml version="1.0" encoding="UTF-8"?>
<svg width="257px" height="184px" viewBox="0 0 257 184" version="1.1" xmlns="http://www.w3.org/2000/svg" xmlns:xlink="http://www.w3.org/1999/xlink">
    <!-- Generator: Sketch 48.2 (47327) - http://www.bohemiancoding.com/sketch -->
    <title>Calendar</title>
    <desc>Created with Sketch.</desc>
    <defs></defs>
    <g id="Page-1" stroke="none" stroke-width="1" fill="none" fill-rule="evenodd">
        <g id="Calendar" transform="translate(128.500000, 92.000000) rotate(180.000000) translate(-128.500000, -92.000000) ">
            <g id="element">
                <polygon id="Page-1" stroke="#3FD27B" stroke-width="2" stroke-linejoin="round" points="140.521107 7 136 22.3724514 152.277017 18.4543888"></polygon>
                <path d="M47,53 L54.0066023,53 C54.5552407,53 55,53.4438648 55,54 C55,54.5522847 54.5550537,55 54.0066023,55 L47,55 L47,62.0066023 C47,62.5552407 46.5561352,63 46,63 C45.4477153,63 45,62.5550537 45,62.0066023 L45,55 L37.9933977,55 C37.4447593,55 37,54.5561352 37,54 C37,53.4477153 37.4449463,53 37.9933977,53 L45,53 L45,45.9933977 C45,45.4447593 45.4438648,45 46,45 C46.5522847,45 47,45.4449463 47,45.9933977 L47,53 Z" id="Combined-Shape" fill="#F8E71C" transform="translate(46.000000, 54.000000) rotate(28.000000) translate(-46.000000, -54.000000) "></path>
                <path d="M228.449786,132.449786 L235.456389,132.449786 C236.005027,132.449786 236.449786,132.893651 236.449786,133.449786 C236.449786,134.002071 236.00484,134.449786 235.456389,134.449786 L228.449786,134.449786 L228.449786,141.456389 C228.449786,142.005027 228.005922,142.449786 227.449786,142.449786 C226.897502,142.449786 226.449786,142.00484 226.449786,141.456389 L226.449786,134.449786 L219.443184,134.449786 C218.894546,134.449786 218.449786,134.005922 218.449786,133.449786 C218.449786,132.897502 218.894733,132.449786 219.443184,132.449786 L226.449786,132.449786 L226.449786,125.443184 C226.449786,124.894546 226.893651,124.449786 227.449786,124.449786 C228.002071,124.449786 228.449786,124.894733 228.449786,125.443184 L228.449786,132.449786 Z" id="Combined-Shape-Copy-2" fill="#FFFFFF" transform="translate(227.449786, 133.449786) rotate(33.000000) translate(-227.449786, -133.449786) "></path>
                <circle id="Oval" stroke="#FF4C74" stroke-width="2" cx="62" cy="7" r="6"></circle>
                <circle id="Oval-Copy" stroke="#2EB9FF" stroke-width="2" cx="55" cy="166" r="6"></circle>
                <circle id="Oval-2" fill="#FCF173" cx="29" cy="90" r="3"></circle>
                <circle id="Oval-2-Copy-2" fill="#7ED321" cx="203" cy="53" r="2"></circle>
                <circle id="Oval-2-Copy" fill="#FCF173" cx="198" cy="112" r="3"></circle>
                <path d="M207.498203,26 L205.992017,26 C204.900176,26 204,26.8954305 204,28 C204,29.1122704 204.891856,30 205.992017,30 L207,30 L214.996405,30 C216.10296,30 217,30.8877296 217,32 C217,33.1045695 216.110237,34 214.996405,34 L194.003595,34 C192.89704,34 192,33.1122704 192,32 C192,30.8954305 192.889763,30 194.003595,30 L195,30 L195.994141,30 C197.10294,30 198,29.1045695 198,28 C198,26.8877296 197.101946,26 195.994141,26 L195,26 L187.003595,26 C185.89704,26 185,25.1122704 185,24 C185,22.8954305 185.889763,22 187.003595,22 L207.996405,22 C209.10296,22 210,22.8877296 210,24 C210,25.1045695 209.110237,26 207.996405,26 L207.498203,26 Z" id="Combined-Shape" fill="#3926A2" opacity="0.200000003"></path>
                <path d="M224,76 L213.505827,76 C212.121897,76 211,74.8903379 211,73.5 C211,72.1192881 212.114292,71 213.505827,71 L234,71 L234.501424,71 C235.33497,71 236,70.3284271 236,69.5 C236,68.6657972 235.329065,68 234.501424,68 L234,68 L221.506183,68 C220.122056,68 219,66.8903379 219,65.5 C219,64.1192881 220.121283,63 221.506183,63 L246.493817,63 C247.877944,63 249,64.1096621 249,65.5 C249,66.8807119 247.878717,68 246.493817,68 L245,68 L244.498576,68 C243.66503,68 243,68.6715729 243,69.5 C243,70.3342028 243.670935,71 244.498576,71 L245,71 L254.494173,71 C255.878103,71 257,72.1096621 257,73.5 C257,74.8807119 255.885708,76 254.494173,76 L234,76 L233.500165,76 C232.674322,76 232,76.6715729 232,77.5 C232,78.3342028 232.671647,79 233.500165,79 L234,79 L245.502377,79 C246.881776,79 248,80.1096621 248,81.5 C248,82.8807119 246.880935,84 245.502377,84 L221.497623,84 C220.118224,84 219,82.8903379 219,81.5 C219,80.1192881 220.119065,79 221.497623,79 L224,79 L224.499835,79 C225.325678,79 226,78.3284271 226,77.5 C226,76.6657972 225.328353,76 224.499835,76 L224,76 Z" id="Combined-Shape" fill="#3926A2" opacity="0.200000003"></path>
                <rect id="Rectangle-15" fill="#3926A2" opacity="0.200000003" x="90" y="166" width="76" height="4" rx="2"></rect>
                <rect id="Rectangle-15-Copy" fill="#3926A2" opacity="0.200000003" x="96" y="180" width="60" height="4" rx="2"></rect>
                <path d="M13,138 L2.50582704,138 C1.12189698,138 0,136.890338 0,135.5 C0,134.119288 1.11429235,133 2.50582704,133 L23,133 L23.501424,133 C24.3349702,133 25,132.328427 25,131.5 C25,130.665797 24.3290647,130 23.501424,130 L23,130 L10.5061832,130 C9.12205645,130 8,128.890338 8,127.5 C8,126.119288 9.12128278,125 10.5061832,125 L35.4938168,125 C36.8779435,125 38,126.109662 38,127.5 C38,128.880712 36.8787172,130 35.4938168,130 L34,130 L33.498576,130 C32.6650298,130 32,130.671573 32,131.5 C32,132.334203 32.6709353,133 33.498576,133 L34,133 L43.494173,133 C44.878103,133 46,134.109662 46,135.5 C46,136.880712 44.8857077,138 43.494173,138 L23,138 L22.5001649,138 C21.6743222,138 21,138.671573 21,139.5 C21,140.334203 21.6716467,141 22.5001649,141 L23,141 L34.5023767,141 C35.881776,141 37,142.109662 37,143.5 C37,144.880712 35.880935,146 34.5023767,146 L10.4976233,146 C9.11822402,146 8,144.890338 8,143.5 C8,142.119288 9.11906498,141 10.4976233,141 L13,141 L13.4998351,141 C14.3256778,141 15,140.328427 15,139.5 C15,138.665797 14.3283533,138 13.4998351,138 L13,138 Z" id="Combined-Shape-Copy" fill="#3926A2" opacity="0.200000003" transform="translate(23.000000, 135.500000) scale(-1, 1) translate(-23.000000, -135.500000) "></path>
            </g>
        </g>
    </g>
</svg>