<?xml version="1.0" encoding="UTF-8"?>
<svg width="87px" height="129px" viewBox="0 0 87 129" version="1.1" xmlns="http://www.w3.org/2000/svg" xmlns:xlink="http://www.w3.org/1999/xlink">
    <!-- Generator: Sketch 48.2 (47327) - http://www.bohemiancoding.com/sketch -->
    <title>Group 3</title>
    <desc>Created with Sketch.</desc>
    <defs>
        <path d="M21.3128235,0 C21.6907059,0 22,0.283511269 22,0.629893238 L22,0.916963227 C22,6.46263345 17.05,11 11,11 C4.95,11 0,6.46263345 0,0.916963227 L0,0.629893238 C0,0.283511269 0.309294118,0 0.687176471,0 L21.3128235,0" id="path-1"></path>
        <filter x="-15.9%" y="-31.8%" width="131.8%" height="190.9%" filterUnits="objectBoundingBox" id="filter-2">
            <feMorphology radius="2" operator="dilate" in="SourceAlpha" result="shadowSpreadOuter1"></feMorphology>
            <feOffset dx="0" dy="3" in="shadowSpreadOuter1" result="shadowOffsetOuter1"></feOffset>
            <feComposite in="shadowOffsetOuter1" in2="SourceAlpha" operator="out" result="shadowOffsetOuter1"></feComposite>
            <feColorMatrix values="0 0 0 0 0.925490196   0 0 0 0 0.898039216   0 0 0 0 1  0 0 0 1 0" type="matrix" in="shadowOffsetOuter1"></feColorMatrix>
        </filter>
        <path d="M21.3128235,0 C21.6907059,0 22,0.283511269 22,0.629893238 L22,0.916963227 C22,6.46263345 17.05,11 11,11 C4.95,11 0,6.46263345 0,0.916963227 L0,0.629893238 C0,0.283511269 0.309294118,0 0.687176471,0 L21.3128235,0" id="path-3"></path>
    </defs>
    <g id="Pro" stroke="none" stroke-width="1" fill="none" fill-rule="evenodd" transform="translate(-132.000000, -5956.000000)">
        <g id="Group-3" transform="translate(134.000000, 5958.000000)">
            <g id="lock" fill="#FFFFFF" fill-rule="nonzero" stroke="#423875" stroke-width="3">
                <path d="M76.775,50 L74.7,50 L74.7,25 C74.7,11.2166667 63.5282,0 49.8,0 L33.2,0 C19.4718,0 8.3,11.2166667 8.3,25 L8.3,50 L6.225,50 C2.80125,50 0,52.8125 0,56.25 L0,118.75 C0,122.1875 2.80125,125 6.225,125 L76.775,125 C80.19875,125 83,122.1875 83,118.75 L83,56.25 C83,52.8125 80.19875,50 76.775,50 Z M24.9,25 C24.9,20.4041667 28.62255,16.6666667 33.2,16.6666667 L49.8,16.6666667 C54.37745,16.6666667 58.1,20.4041667 58.1,25 L58.1,50 L24.9,50 L24.9,25 Z" id="Shape"></path>
            </g>
            <g id="Group-2" transform="translate(14.000000, 69.000000)">
                <path d="M13,6.5 C13,2.91022727 10.0897727,0 6.5,0 C2.91022727,0 0,2.91022727 0,6.5 C0,10.0897727 2.91022727,13 6.5,13 C10.0897727,13 13,10.0897727 13,6.5" id="Page-1" fill="#423875"></path>
                <circle id="Oval-5" fill="#FFFFFF" cx="5.57142857" cy="5.57142857" r="1.85714286"></circle>
            </g>
            <g id="Group-2-Copy" transform="translate(56.000000, 69.000000)">
                <path d="M13,6.5 C13,2.91022727 10.0897727,0 6.5,0 C2.91022727,0 0,2.91022727 0,6.5 C0,10.0897727 2.91022727,13 6.5,13 C10.0897727,13 13,10.0897727 13,6.5" id="Page-1" fill="#423875"></path>
                <circle id="Oval-5" fill="#FFFFFF" cx="5.57142857" cy="5.57142857" r="1.85714286"></circle>
            </g>
            <g id="Oval-3" transform="translate(30.000000, 97.000000)">
                <g id="Mask">
                    <use fill="black" fill-opacity="1" filter="url(#filter-2)" xlink:href="#path-1"></use>
                    <use stroke="#423875" stroke-width="4" fill="#B92815" fill-rule="evenodd" xlink:href="#path-1"></use>
                </g>
                <mask id="mask-4" fill="white">
                    <use xlink:href="#path-3"></use>
                </mask>
                <use id="Mask" fill="#FF4C74" xlink:href="#path-3"></use>
            </g>
        </g>
    </g>
</svg>