<?xml version="1.0" encoding="UTF-8"?>
<svg width="20px" height="30px" viewBox="0 0 20 30" version="1.1" xmlns="http://www.w3.org/2000/svg" xmlns:xlink="http://www.w3.org/1999/xlink">
    <!-- Generator: Sketch 48.1 (47250) - http://www.bohemiancoding.com/sketch -->
    <title>lock</title>
    <desc>Created with Sketch.</desc>
    <defs></defs>
    <g id="Page-1" stroke="none" stroke-width="1" fill="none" fill-rule="evenodd">
        <g id="lock" fill="#B6B6B6" fill-rule="nonzero">
            <path d="M18.5,12 L18,12 L18,6 C18,2.692 15.308,0 12,0 L8,0 C4.692,0 2,2.692 2,6 L2,12 L1.5,12 C0.675,12 0,12.675 0,13.5 L0,28.5 C0,29.325 0.675,30 1.5,30 L18.5,30 C19.325,30 20,29.325 20,28.5 L20,13.5 C20,12.675 19.325,12 18.5,12 Z M6,6 C6,4.897 6.897,4 8,4 L12,4 C13.103,4 14,4.897 14,6 L14,12 L6,12 L6,6 Z" id="Shape"></path>
        </g>
    </g>
</svg>