<?xml version="1.0" encoding="UTF-8"?>
<svg width="65px" height="74px" viewBox="0 0 65 74" version="1.1" xmlns="http://www.w3.org/2000/svg" xmlns:xlink="http://www.w3.org/1999/xlink">
    <!-- Generator: Sketch 48.2 (47327) - http://www.bohemiancoding.com/sketch -->
    <title>Combined Shape Copy 2</title>
    <desc>Created with Sketch.</desc>
    <defs></defs>
    <g id="Pro" stroke="none" stroke-width="1" fill="none" fill-rule="evenodd" transform="translate(-310.000000, -845.000000)">
        <g id="Group-4" transform="translate(-2.000000, 531.000000)" fill="#D2D2D2">
            <path d="M353.700616,346.519661 L388.892705,346.519661 C389.723096,346.519661 390.39626,347.19424 390.39626,348.014025 L390.39626,354.199207 C390.39626,355.024522 389.731656,355.693572 388.892705,355.693572 L353.700616,355.693572 L353.700616,390.885661 C353.700616,391.716051 353.026037,392.389215 352.206252,392.389215 L346.02107,392.389215 C345.195755,392.389215 344.526706,391.724611 344.526706,390.885661 L344.526706,355.693572 L309.334617,355.693572 C308.504226,355.693572 307.831062,355.018992 307.831062,354.199207 L307.831062,348.014025 C307.831062,347.188711 308.495666,346.519661 309.334617,346.519661 L344.526706,346.519661 L344.526706,311.327572 C344.526706,310.497181 345.201285,309.824017 346.02107,309.824017 L352.206252,309.824017 C353.031567,309.824017 353.700616,310.488621 353.700616,311.327572 L353.700616,346.519661 Z" id="Combined-Shape-Copy-2" transform="translate(349.113661, 351.106616) rotate(33.000000) translate(-349.113661, -351.106616) "></path>
        </g>
    </g>
</svg>