<?xml version="1.0" encoding="UTF-8"?>
<svg width="31px" height="31px" viewBox="0 0 31 31" version="1.1" xmlns="http://www.w3.org/2000/svg" xmlns:xlink="http://www.w3.org/1999/xlink">
    <!-- Generator: Sketch 48.2 (47327) - http://www.bohemiancoding.com/sketch -->
    <title>Combined Shape</title>
    <desc>Created with Sketch.</desc>
    <defs></defs>
    <g id="Pro" stroke="none" stroke-width="1" fill="none" fill-rule="evenodd" transform="translate(-70.000000, -656.000000)">
        <g id="Group-4" transform="translate(-2.000000, 531.000000)" fill="#FDD0A2">
            <path d="M89.6268799,138.325 L102.962826,138.325 C103.790734,138.325 104.461887,139.005242 104.461887,139.833491 L104.461887,140.52526 C104.461887,141.358377 103.795133,142.033751 102.962826,142.033751 L89.6268799,142.033751 L89.6268799,155.369697 C89.6268799,156.197606 88.9466377,156.868758 88.1183886,156.868758 L87.4266195,156.868758 C86.5935028,156.868758 85.9181282,156.202005 85.9181282,155.369697 L85.9181282,142.033751 L72.5821825,142.033751 C71.7542739,142.033751 71.0831215,141.353509 71.0831215,140.52526 L71.0831215,139.833491 C71.0831215,139.000374 71.749875,138.325 72.5821825,138.325 L85.9181282,138.325 L85.9181282,124.989054 C85.9181282,124.161145 86.5983705,123.489993 87.4266195,123.489993 L88.1183886,123.489993 C88.9515054,123.489993 89.6268799,124.156746 89.6268799,124.989054 L89.6268799,138.325 Z" id="Combined-Shape" transform="translate(87.772504, 140.179375) rotate(28.000000) translate(-87.772504, -140.179375) "></path>
        </g>
    </g>
</svg>